<svg xmlns="http://www.w3.org/2000/svg" viewBox="0 0 2403.64 1201.7"><defs><style>.cls-1{fill:#ff9015;}.cls-2,.cls-3,.cls-4,.cls-5,.cls-6,.cls-8{fill:#005f7f;}.cls-2{opacity:0.6;}.cls-3,.cls-7{opacity:0.8;}.cls-4{opacity:0.4;}.cls-5{opacity:0.7;}.cls-6{opacity:0.5;}</style></defs><g id="Layer_2" data-name="Layer 2"><g id="Layer_1-2" data-name="Layer 1"><path class="cls-1" d="M172,860.38V622.94c0-93.4,67.21-158,164.11-158H451.31V568.83H332.59c-38.41,0-56.74,20.95-56.74,63.73v124H448.69V877c0,99.51-56.73,154.51-158.87,154.51H158.87C56.75,1031.48,0,976.48,0,877V605.48H103.89V890.06c4.36,29.68,13.09,35.79,45.38,35.79h151c29.69,0,44.53-12.22,44.53-35.79V860.38Zm-70.71,236.56H205.14V1201.7H101.27Zm147.52,0H352.67V1201.7H248.79Z"/><path class="cls-1" d="M512.45,929.34h13.1c51.5,0,76.82-24.44,76.82-71.58V465H706.24V837.68c0,14,0,26.19-.87,35.79-3.49,39.29-13.08,71.59-30.54,96-25.32,34-58.49,54.13-99.52,59.36-12.22.88-28.81,2.62-48.89,2.62h-14Z"/><path class="cls-1" d="M1014.39,756.51V693.65c0-42.77-10.47-73.33-32.3-91.66a123.1,123.1,0,0,0-45.38-25.3c-15.71-5.24-41.9-7.86-79.44-8.73V464.07h34.05c55.87,0,103,14,142.28,41.9,56.74,39.29,85.55,101.26,85.55,186.81v167.6H784.81V756.51Z"/><path class="cls-2" d="M1251.68,956.15C1514.65,757.84,1791,586.82,2128,530c-8-7.3-10.71-10.66-14.18-12.81-77.08-47.68-159.81-83.37-244.94-113.63-7.07-2.51-18,.61-25.24,4.58-128.94,70.73-243.4,161.1-345.5,266.05C1415.65,758.92,1338.57,849,1259.2,936.76c-4.26,4.72-7.47,10.4-11.17,15.63Z"/><path class="cls-3" d="M1199.67,915.11c5.19-9.33,10.56-18.56,15.52-28,93.45-177.92,193.74-351.51,320.57-508.4,62-76.68,132.09-145,209.44-206.07,4.88-3.85,8.49-9.32,12.69-14-5.59-3.84-10.66-9.25-16.85-11.28-70.5-23-143.57-27.89-217-28.32-7.37,0-16.75,9.15-21.89,16.39-56.25,79.29-99.47,165.75-136.89,255.12-65.22,155.79-115.45,316.62-159,479.65q-5.71,21.44-11.37,42.9Z"/><path class="cls-4" d="M1345.13,976.83c351.13-71,701.7-107,1056.34-29.79.72-2.26,1.44-4.51,2.17-6.77-4.68-6.52-8.81-13.54-14.13-19.5-53.39-59.85-112.79-112.95-181.07-155.25a78.58,78.58,0,0,0-42.09-11.06c-116.77,4.62-231.39,24.07-344.77,52-157.24,38.82-308.42,94.71-456.45,159.69C1358.24,969.22,1351.79,973.26,1345.13,976.83Z"/><path class="cls-5" d="M1931.52,318.91c-19-9.22-37.3-20.27-57.06-27.28-46.14-16.37-93-30.87-139.54-46-16.73-5.42-30.1-2.77-44.33,10.34-116.54,107.34-210.19,233.14-292.85,367-60,97.22-114.08,198.11-170.7,297.41-1.82,3.18-2.61,6.93-2,12.16,202.89-240,417.47-465.94,706.93-604.86Z"/><path class="cls-6" d="M2272.75,716.55c-25.27-16.88-49.83-34.94-75.95-50.37-44.43-26.26-90.24-50.19-134.67-76.46-22.42-13.25-43.58-11.24-67.28-4.45-168.8,48.33-323.07,127.87-471,220.23-75.39,47.06-148.11,98.4-221.92,148a57.65,57.65,0,0,0-16.22,17C1598.15,824.66,1920.59,720,2270.58,724.55,2271.3,721.88,2272,719.21,2272.75,716.55Z"/><path class="cls-1" d="M1510.93,5.06c-7.4-3.48-14.86-4.07-19.75-4.69-74.1-3-145.74,12.26-216.49,31.85-7.1,2-13.63,13.35-16.6,21.73-32.52,91.61-50.57,186.57-62.23,282.75-20.32,167.67-24.84,336.1-22.3,504.82q.33,22.18.74,44.37l5.1.68c2.44-10.39,5.11-20.73,7.31-31.17,41.45-196.65,90.67-391,170-576.49,38.76-90.66,87.6-175.52,145.4-255.33,2.42-3.34,7.33-9.83,10.35-13.8C1513.71,8.1,1512.84,6,1510.93,5.06Zm-118.65,156.4H1285.14v-32h18.09a42.9,42.9,0,0,1-4.18-18.09c0-32.69,23.66-55.65,55.66-55.65h23.65v32h-27.82c-13.22,0-20.18,7.65-20.18,23,0,12.52,7.65,18.78,22.26,18.78h39.66Z"/><g class="cls-7"><path class="cls-8" d="M811.19,891.46h42.29l24.68,109.75H855.89l-4.36-19.85H813.12l-4.35,19.85H786.49ZM847.34,962l-11.13-52.13h-7.75L817.32,962Z"/><path class="cls-8" d="M892.86,891.46h37c38.26,0,46.65,16.3,46.65,52.77,0,37.45-7.26,57-46.65,57h-37Zm37,90.38c21.63,0,23.72-13.24,23.72-37.61,0-24.05-2.09-33.41-23.72-33.41H915.14v71Z"/><path class="cls-8" d="M995.86,891.46h42.61c25,0,38.73,11.13,38.73,36.14,0,15.17-6.13,25.35-16.14,31.64l15.65,42h-24.37l-12.74-36.8h-21.47v36.8H995.86Zm42.93,53.91c11.14,0,15.65-7.76,15.65-17.44,0-10.49-5.32-17.43-16-17.43h-20.34v34.87Z"/><path class="cls-8" d="M1095.94,891.46h22.27v109.75h-22.27Z"/></g></g></g></svg>